<mxfile host="65bd71144e">
    <diagram id="0uQkwQVw9rJRkADxg5c1" name="Page-1">
        <mxGraphModel dx="2025" dy="1804" grid="1" gridSize="10" guides="1" tooltips="1" connect="1" arrows="1" fold="1" page="1" pageScale="1" pageWidth="850" pageHeight="1100" math="0" shadow="0">
            <root>
                <mxCell id="0"/>
                <mxCell id="1" parent="0"/>
                <mxCell id="30" value="" style="shape=ext;double=0;whiteSpace=wrap;html=1;sketch=1;align=center;" vertex="1" parent="1">
                    <mxGeometry x="-510" y="-20" width="710" height="360" as="geometry"/>
                </mxCell>
                <mxCell id="15" value="&lt;font color=&quot;#000000&quot;&gt;azure monitor&lt;br&gt;(sink)&lt;/font&gt;" style="square;whiteSpace=wrap;html=1;sketch=0;fillColor=#fff2cc;strokeColor=#d6b656;" vertex="1" parent="1">
                    <mxGeometry x="-160" y="60" width="130" height="110" as="geometry"/>
                </mxCell>
                <mxCell id="17" style="edgeStyle=orthogonalEdgeStyle;rounded=0;orthogonalLoop=1;jettySize=auto;html=1;" edge="1" parent="1" source="16" target="15">
                    <mxGeometry relative="1" as="geometry"/>
                </mxCell>
                <mxCell id="16" value="metrics&lt;br&gt;(source)" style="ellipse;whiteSpace=wrap;html=1;sketch=1;" vertex="1" parent="1">
                    <mxGeometry x="-470" y="-10" width="120" height="60" as="geometry"/>
                </mxCell>
                <mxCell id="19" style="edgeStyle=orthogonalEdgeStyle;rounded=0;orthogonalLoop=1;jettySize=auto;html=1;" edge="1" parent="1" source="18" target="15">
                    <mxGeometry relative="1" as="geometry"/>
                </mxCell>
                <mxCell id="18" value="azure activity&lt;br&gt;(source)" style="ellipse;whiteSpace=wrap;html=1;sketch=1;" vertex="1" parent="1">
                    <mxGeometry x="-470" y="70" width="120" height="60" as="geometry"/>
                </mxCell>
                <mxCell id="22" style="edgeStyle=orthogonalEdgeStyle;rounded=0;orthogonalLoop=1;jettySize=auto;html=1;entryX=0.5;entryY=1;entryDx=0;entryDy=0;" edge="1" parent="1" source="20" target="21">
                    <mxGeometry relative="1" as="geometry"/>
                </mxCell>
                <mxCell id="20" value="service health&lt;br&gt;(source)" style="ellipse;whiteSpace=wrap;html=1;sketch=1;" vertex="1" parent="1">
                    <mxGeometry x="-5" y="260" width="120" height="60" as="geometry"/>
                </mxCell>
                <mxCell id="21" value="&lt;font color=&quot;#000000&quot;&gt;service health&lt;/font&gt;" style="square;whiteSpace=wrap;html=1;sketch=0;fillColor=#fff2cc;strokeColor=#d6b656;" vertex="1" parent="1">
                    <mxGeometry x="-10" y="60" width="130" height="110" as="geometry"/>
                </mxCell>
                <mxCell id="25" value="" style="edgeStyle=orthogonalEdgeStyle;rounded=0;orthogonalLoop=1;jettySize=auto;html=1;" edge="1" parent="1" source="23" target="24">
                    <mxGeometry relative="1" as="geometry"/>
                </mxCell>
                <mxCell id="28" style="edgeStyle=orthogonalEdgeStyle;rounded=0;orthogonalLoop=1;jettySize=auto;html=1;" edge="1" parent="1" source="23" target="26">
                    <mxGeometry relative="1" as="geometry"/>
                </mxCell>
                <mxCell id="29" style="edgeStyle=orthogonalEdgeStyle;rounded=0;orthogonalLoop=1;jettySize=auto;html=1;" edge="1" parent="1" source="23" target="27">
                    <mxGeometry relative="1" as="geometry"/>
                </mxCell>
                <mxCell id="23" value="diagnostics&lt;br&gt;(source)" style="ellipse;whiteSpace=wrap;html=1;sketch=1;" vertex="1" parent="1">
                    <mxGeometry x="-465" y="150" width="120" height="60" as="geometry"/>
                </mxCell>
                <mxCell id="33" style="edgeStyle=orthogonalEdgeStyle;rounded=0;orthogonalLoop=1;jettySize=auto;html=1;curved=1;exitX=1;exitY=0.5;exitDx=0;exitDy=0;strokeWidth=3;" edge="1" parent="1" source="27" target="15">
                    <mxGeometry relative="1" as="geometry"/>
                </mxCell>
                <mxCell id="24" value="log&lt;br&gt;analytics&lt;br&gt;workspace" style="whiteSpace=wrap;html=1;sketch=1;" vertex="1" parent="1">
                    <mxGeometry x="-440" y="270" width="80" height="60" as="geometry"/>
                </mxCell>
                <mxCell id="34" style="edgeStyle=orthogonalEdgeStyle;curved=1;rounded=0;orthogonalLoop=1;jettySize=auto;html=1;strokeWidth=3;" edge="1" parent="1" source="26" target="30">
                    <mxGeometry relative="1" as="geometry"/>
                </mxCell>
                <mxCell id="26" value="event hub" style="whiteSpace=wrap;html=1;sketch=1;" vertex="1" parent="1">
                    <mxGeometry x="-330" y="270" width="80" height="60" as="geometry"/>
                </mxCell>
                <mxCell id="27" value="storage account" style="whiteSpace=wrap;html=1;sketch=1;" vertex="1" parent="1">
                    <mxGeometry x="-230" y="270" width="80" height="60" as="geometry"/>
                </mxCell>
                <mxCell id="32" value="" style="group" vertex="1" connectable="0" parent="1">
                    <mxGeometry x="340" y="-80" width="465" height="410" as="geometry"/>
                </mxCell>
                <mxCell id="13" value="" style="shape=ext;double=0;whiteSpace=wrap;html=1;sketch=1;align=center;" vertex="1" parent="32">
                    <mxGeometry y="60" width="465" height="350" as="geometry"/>
                </mxCell>
                <mxCell id="14" value="&lt;h2&gt;&lt;font face=&quot;Comic Sans MS&quot;&gt;alerting&lt;/font&gt;&lt;/h2&gt;" style="text;html=1;align=right;verticalAlign=middle;resizable=0;points=[];autosize=1;strokeColor=none;" vertex="1" parent="32">
                    <mxGeometry x="180" width="80" height="50" as="geometry"/>
                </mxCell>
                <mxCell id="31" value="" style="group" vertex="1" connectable="0" parent="32">
                    <mxGeometry x="10" y="120" width="445" height="260" as="geometry"/>
                </mxCell>
                <mxCell id="2" value="azure alert" style="shape=ext;double=0;whiteSpace=wrap;html=1;aspect=fixed;sketch=1;" parent="31" vertex="1">
                    <mxGeometry x="185" width="80" height="80" as="geometry"/>
                </mxCell>
                <mxCell id="3" value="azure monitor" style="ellipse;whiteSpace=wrap;html=1;sketch=1;" parent="31" vertex="1">
                    <mxGeometry x="5" y="10" width="120" height="60" as="geometry"/>
                </mxCell>
                <mxCell id="4" value="" style="edgeStyle=orthogonalEdgeStyle;rounded=0;orthogonalLoop=1;jettySize=auto;html=1;sketch=1;" parent="31" source="3" target="2" edge="1">
                    <mxGeometry relative="1" as="geometry"/>
                </mxCell>
                <mxCell id="5" value="log analytics" style="ellipse;whiteSpace=wrap;html=1;sketch=1;" parent="31" vertex="1">
                    <mxGeometry x="5" y="200" width="120" height="60" as="geometry"/>
                </mxCell>
                <mxCell id="6" value="" style="edgeStyle=orthogonalEdgeStyle;rounded=0;orthogonalLoop=1;jettySize=auto;html=1;sketch=1;" parent="31" source="5" target="2" edge="1">
                    <mxGeometry relative="1" as="geometry"/>
                </mxCell>
                <mxCell id="7" value="action groups" style="shape=step;perimeter=stepPerimeter;whiteSpace=wrap;html=1;fixedSize=1;sketch=1;" parent="31" vertex="1">
                    <mxGeometry x="325" width="120" height="80" as="geometry"/>
                </mxCell>
                <mxCell id="8" value="" style="edgeStyle=orthogonalEdgeStyle;rounded=0;orthogonalLoop=1;jettySize=auto;html=1;sketch=1;" parent="31" source="2" target="7" edge="1">
                    <mxGeometry relative="1" as="geometry"/>
                </mxCell>
                <mxCell id="12" value="service health" style="ellipse;whiteSpace=wrap;html=1;sketch=1;" vertex="1" parent="31">
                    <mxGeometry y="100" width="120" height="60" as="geometry"/>
                </mxCell>
            </root>
        </mxGraphModel>
    </diagram>
</mxfile>